<?xml version="1.0" encoding="iso-8859-1"?>
<!-- Generator: Adobe Illustrator 19.0.0, SVG Export Plug-In . SVG Version: 6.00 Build 0)  -->
<svg version="1.1" id="Layer_1" xmlns="http://www.w3.org/2000/svg" xmlns:xlink="http://www.w3.org/1999/xlink" x="0px" y="0px"
	 viewBox="0 0 512 512" style="enable-background:new 0 0 512 512;" xml:space="preserve">
<g>
	<g>
		<path d="M262.554,2.84C260.855,1.029,258.483,0,256,0c-2.482,0-4.855,1.029-6.554,2.84c-0.475,0.507-48.048,51.406-94.966,114.412
			C90.717,202.88,58.386,269.206,58.386,314.386C58.386,423.351,147.035,512,256,512c108.965,0,197.614-88.649,197.614-197.614
			C453.614,207.879,270.354,11.162,262.554,2.84z M256,494.035c-99.059,0-179.649-80.59-179.649-179.649
			c0-88.68,146.604-255.612,179.654-292.11c14.528,16.022,50.988,57.202,87.107,105.706
			c60.538,81.296,92.537,145.755,92.537,186.404C435.649,413.445,355.059,494.035,256,494.035z"/>
	</g>
</g>
<g>
	<g>
		<path d="M390.737,269.121h-89.559v-89.472c0-4.961-4.287-9.335-9.248-9.335h-71.86c-4.96,0-8.717,4.375-8.717,9.335v89.472h-90.09
			c-4.96,0-8.717,4.375-8.717,9.335v71.86c0,4.961,3.757,8.629,8.717,8.629h90.09v90.178c0,4.961,3.757,8.629,8.717,8.629h71.86
			c4.961,0,9.248-3.669,9.248-8.629v-90.178h89.559c4.961,0,9.248-3.669,9.248-8.629v-71.86
			C399.985,273.496,395.697,269.121,390.737,269.121z M382.02,340.98h-90.09c-4.96,0-8.717,4.375-8.717,9.335v89.472h-53.895
			v-89.472c0-4.961-4.287-9.335-9.248-9.335h-89.559v-53.895h89.559c4.961,0,9.248-3.669,9.248-8.629v-90.178h53.895v90.178
			c0,4.961,3.757,8.629,8.717,8.629h90.09V340.98z"/>
	</g>
</g>
<g>
</g>
<g>
</g>
<g>
</g>
<g>
</g>
<g>
</g>
<g>
</g>
<g>
</g>
<g>
</g>
<g>
</g>
<g>
</g>
<g>
</g>
<g>
</g>
<g>
</g>
<g>
</g>
<g>
</g>
</svg>
