<?xml version="1.0" encoding="iso-8859-1"?>
<!-- Generator: Adobe Illustrator 19.0.0, SVG Export Plug-In . SVG Version: 6.00 Build 0)  -->
<svg version="1.1" id="Layer_1" xmlns="http://www.w3.org/2000/svg" xmlns:xlink="http://www.w3.org/1999/xlink" x="0px" y="0px"
	 viewBox="0 0 512 512" style="enable-background:new 0 0 512 512;" xml:space="preserve">
<g>
	<circle style="fill:#A0EBFF;" cx="256" cy="256" r="256"/>
	<path style="fill:#FFFFFF;" d="M290.811,102.036h-1.833V68.475c0-18.534-15.027-33.562-33.562-33.562s-33.562,15.027-33.562,33.562
		v33.562h-0.66c-47.79,0-86.533,38.743-86.533,86.533v119.962c0,47.79,38.743,86.533,86.533,86.533h13.778v9.503
		c0,11.069,8.975,20.04,20.04,20.04c11.069,0,20.04-8.97,20.04-20.04v-9.503h15.759c47.79,0,86.533-38.743,86.533-86.533V188.57
		C377.344,140.774,338.601,102.036,290.811,102.036z M255.416,55.24c7.306,0,13.23,5.924,13.23,13.23
		c0,7.306-5.924,13.23-13.23,13.23s-13.23-5.924-13.23-13.23C242.186,61.164,248.11,55.24,255.416,55.24z"/>
	<path style="fill:#B6F0FF;" d="M286.623,102.036h-1.613V68.475c0-18.534-13.251-33.562-29.594-33.562v20.332
		c6.441,0,13.23,4.388,13.23,13.23c0,8.55-6.82,13.23-13.23,13.23v342.866c9.59-0.22,17.311-9.073,17.311-19.999v-9.503h13.896
		c42.138,0,76.298-38.743,76.298-86.533V188.57C362.921,140.774,328.76,102.036,286.623,102.036z"/>
	<path style="fill:#68C4DE;" d="M221.189,380.646c-39.762,0-72.11-32.348-72.11-72.11V188.564c0-39.762,32.348-72.11,72.11-72.11
		h69.622c39.762,0,72.11,32.348,72.11,72.11v119.967c0,39.762-32.348,72.11-72.11,72.11h-69.622V380.646z"/>
	<path style="fill:#FC611F;" d="M149.105,188.068l-0.026,0.502v119.962c0,39.762,32.348,72.11,72.11,72.11h69.622
		c39.762,0,72.11-32.348,72.11-72.11V188.564l-0.026-0.502H149.105V188.068z"/>
	<path style="fill:#E34E10;" d="M347.776,188.068h-92.365v192.579h30.418c34.171,0,61.967-32.348,61.967-72.11V188.564
		L347.776,188.068z"/>
	<path style="fill:#FFFFFF;" d="M177.275,310.129h28.196v-7.757h-28.196V310.129z M177.275,343.316h28.196v-7.757h-28.196V343.316z
		 M177.275,276.941h28.196v-7.757h-28.196V276.941z M177.275,243.753h28.196v-7.757h-28.196V243.753z M177.275,202.808v7.757h28.196
		v-7.757H177.275z M191.37,218.757h-14.095v7.757h14.095V218.757z M191.37,318.321h-14.095v7.757h14.095V318.321z M191.37,285.133
		h-14.095v7.757h14.095V285.133z M191.37,251.945h-14.095v7.757h14.095V251.945z"/>
	<path style="fill:#FC611F;" d="M271.473,461.035c0,8.868-7.188,16.056-16.056,16.056c-8.868,0-16.056-7.188-16.056-16.056
		s16.056-30.464,16.056-30.464S271.473,452.168,271.473,461.035z"/>
	<path style="fill:#E34E10;" d="M255.416,430.566v46.52c6.825,0,12.355-7.188,12.355-16.056
		C267.771,452.168,255.416,430.566,255.416,430.566z"/>
</g>
<g>
</g>
<g>
</g>
<g>
</g>
<g>
</g>
<g>
</g>
<g>
</g>
<g>
</g>
<g>
</g>
<g>
</g>
<g>
</g>
<g>
</g>
<g>
</g>
<g>
</g>
<g>
</g>
<g>
</g>
</svg>
